<svg xmlns="http://www.w3.org/2000/svg" id="_레이어_1" data-name="레이어_1" viewBox="0 0 612 792"><defs><style>.st0{fill:#d3d3d4}.st2{fill:#929292}.st3{fill:#636262}</style></defs><path d="M38.81 254.47h522.26v347.59H38.81z" class="st3"/><path d="M51 271.93h497.87v312.68H51z" class="st0"/><path d="m109.75 555.2-.09-.05-7.42 10.99v-11.02h-5.65v.08l-.09-.05-9.19 13.61-5.46-8.08 13.46-19.94H83.12l-7.37 10.92-7.39-10.92H56.17l13.49 19.94-13.49 19.98h12.19l7.4-10.96 3.26 4.81h12.23l5.34-7.91v7.91h7.82l5.34-7.91v7.91h5.65v-19.39h-5.65zM145.89 555.12v11.02l-7.42-10.99-.09.05v-.08h-5.65v19.39h5.65v-7.91l5.34 7.91h7.82v-19.39zM131.44 574.51v-4.3h-9.11v-3.23h9.11v-4.3h-9.11v-3.23h9.11v-4.3h-9.11v-.03h-5.65v19.39h14.76" class="st2"/><path d="m91.19 560.45 2.2-3.29h-7.21l-2.19 3.29zM124.73 575.84l-.03-.01-3.26 4.83h1.96l1.33-1.98v1.98h1.41v-4.84h-1.41zM132 575.84h-.02l-2.54 3.75h-1.47v-2.69h2.27v-1.07h-2.61c-.59 0-1.07.48-1.07 1.07v2.69c0 .59.48 1.07 1.07 1.07h3.04l1.33-1.97v1.98h1.41v-4.84H132v.02ZM136.34 575.82h-2.61v4.84h2.61c.59 0 1.07-.48 1.07-1.07v-2.69c0-.59-.48-1.07-1.07-1.07Zm-.33 3.77h-.86v-2.69h.86zM139.16 576.89h2.27v-1.07h-3.68v4.84h3.68v-1.07h-2.27v-.81h2.27v-1.07h-2.27zM145.54 575.82l-1.23 3.32-1.23-3.32h-1.2v4.84h1.2v-1.8l.66 1.8h1.13l.67-1.8v1.8h1.2v-4.84h-1.2M149.19 577.31l-.89-1.5h-1.47l1.77 2.99v1.86h1.17v-1.86l1.77-2.99h-1.47z" class="st2"/><path d="M56.17 277.12h486.82V533.8H56.17z" style="fill:#231815"/><circle cx="514.38" cy="560.45" r="13.68" class="st2"/><circle cx="472.36" cy="560.45" r="13.68" class="st2"/><circle cx="432.37" cy="560.78" r="13.68" class="st2"/><rect width="362.09" height="33.94" x="160.22" y="296.13" class="st0" rx="3.75" ry="3.75"/><rect width="79.53" height="33.94" x="73.52" y="296.13" class="st0" rx="3.75" ry="3.75"/><path d="M99.72 304.2V322h-4.06l-2.41-8.09V322h-3.87v-17.8h3.87l2.59 8.01v-8.01h3.87ZM109.58 304.2l2.65 17.8h-4.73l-.25-3.2h-1.66l-.28 3.2h-4.78l2.36-17.8zm-2.45 11.44c-.23-2.02-.47-4.51-.71-7.47-.47 3.41-.77 5.9-.89 7.47h1.59ZM127.29 304.2V322h-4.04v-12.01L121.63 322h-2.87l-1.7-11.74V322h-4.05v-17.8H119c.18 1.07.36 2.33.55 3.78l.66 4.53 1.06-8.31zM129.15 304.2h7.72v3.56h-3.09v3.37h2.89v3.39h-2.89v3.91h3.4v3.56h-8.02v-17.8Z" class="st3"/><rect width="362.09" height="33.94" x="160.22" y="343.59" class="st0" rx="3.75" ry="3.75"/><rect width="79.53" height="33.94" x="73.52" y="343.59" class="st0" rx="3.75" ry="3.75"/><path d="M90.4 351.66h3.46c2.24 0 3.75.1 4.53.31s1.39.54 1.8 1.01.67.99.77 1.57.15 1.71.15 3.39v6.23c0 1.6-.08 2.67-.23 3.2-.15.54-.41.96-.79 1.26s-.84.52-1.39.64-1.38.18-2.48.18h-5.84v-17.8Zm4.62 3.04v11.71c.67 0 1.08-.13 1.23-.4s.23-1 .23-2.18v-6.91c0-.81-.03-1.32-.08-1.55s-.17-.39-.35-.5-.53-.16-1.03-.16ZM112.16 351.66v3.56h-2.75v14.23h-4.63v-14.23h-2.74v-3.56h10.11ZM119.36 351.32l-5.26 18.48h-3.36l5.3-18.48h3.33ZM120.43 351.66h4.66q1.89 0 2.91.3c1.02.3 1.19.48 1.53.86.34.37.57.83.69 1.36s.18 1.35.18 2.47v1.55c0 1.14-.12 1.96-.35 2.48s-.67.92-1.29 1.2-1.45.42-2.46.42h-1.24v7.17h-4.63v-17.8Zm4.62 3.04v4.53c.13 0 .25.01.34.01.43 0 .72-.1.89-.31.16-.21.25-.64.25-1.3v-1.46c0-.61-.1-1-.29-1.19-.19-.18-.59-.27-1.19-.27ZM136.17 351.66v17.8h-4.57v-17.8z" class="st3"/><rect width="362.09" height="33.94" x="160.22" y="391.05" class="st0" rx="3.75" ry="3.75"/><rect width="362.09" height="67.88" x="160.22" y="438.48" class="st0" rx="3.75" ry="3.75"/><rect width="79.53" height="33.94" x="73.52" y="391.05" class="st0" rx="3.75" ry="3.75"/><path d="M93.3 404.51H89v-1.32c0-.62-.05-1.01-.16-1.18s-.29-.25-.55-.25c-.28 0-.49.11-.63.34s-.21.57-.21 1.03c0 .59.08 1.04.24 1.34.15.3.59.66 1.31 1.09 2.06 1.22 3.36 2.23 3.89 3.01s.8 2.05.8 3.79c0 1.27-.15 2.2-.44 2.8s-.87 1.1-1.72 1.51-1.84.61-2.97.61c-1.24 0-2.3-.23-3.17-.7-.88-.47-1.45-1.07-1.72-1.79-.27-.73-.41-1.75-.41-3.09v-1.17h4.3v2.17q0 1.005.18 1.29c.12.19.34.29.64.29s.54-.12.69-.36.23-.6.23-1.08c0-1.05-.14-1.73-.43-2.06-.29-.32-1.02-.86-2.17-1.62s-1.91-1.32-2.29-1.66c-.37-.34-.68-.82-.93-1.43s-.37-1.38-.37-2.33c0-1.36.17-2.36.52-2.99s.91-1.12 1.69-1.48 1.71-.53 2.81-.53c1.2 0 2.23.19 3.07.58q1.275.585 1.68 1.47c.27.59.41 1.59.41 3.01v.7ZM99.77 399.12v17.8h-4.63v-17.8zM110.95 399.12v3.56h-2.75v14.24h-4.63v-14.24h-2.74v-3.56h10.11ZM112 399.12h3.28c2.18 0 3.66.08 4.44.25q1.155.255 1.89 1.29c.735 1.035.73 1.8.73 3.31 0 1.38-.17 2.32-.52 2.79-.34.48-1.02.76-2.03.86.92.23 1.53.53 1.85.91s.51.73.59 1.05.12 1.2.12 2.63v4.69h-4.3v-5.91c0-.95-.08-1.54-.23-1.77s-.54-.34-1.18-.34v8.02h-4.63v-17.8Zm4.63 3.04v3.96c.52 0 .89-.07 1.09-.21.21-.14.31-.61.31-1.39v-.98q0-.84-.3-1.11c-.2-.18-.57-.26-1.1-.26ZM124.13 399.12h7.72v3.56h-3.09v3.38h2.89v3.39h-2.89v3.91h3.4v3.56h-8.02v-17.8ZM133.48 399.12h4.66q1.89 0 2.91.3c.68.2 1.19.48 1.53.86.34.37.57.83.69 1.36s.18 1.35.18 2.47v1.55c0 1.14-.12 1.96-.35 2.48s-.67.92-1.29 1.2-1.45.42-2.46.42h-1.24v7.17h-4.63v-17.8Zm4.63 3.04v4.53c.13 0 .25.01.34.01.43 0 .72-.1.89-.31.16-.21.25-.64.25-1.3v-1.46c0-.61-.1-1-.29-1.19-.19-.18-.59-.28-1.19-.28" class="st3"/><rect width="79.53" height="33.94" x="73.52" y="438.48" class="st0" rx="3.75" ry="3.75"/><path d="M96.55 446.55h3.28c2.18 0 3.66.08 4.44.25q1.155.255 1.89 1.29c.735 1.035.73 1.8.73 3.31 0 1.38-.17 2.32-.52 2.79-.34.48-1.02.76-2.03.86.92.23 1.53.53 1.85.91s.51.73.59 1.05.12 1.2.12 2.63v4.69h-4.3v-5.91c0-.95-.08-1.54-.23-1.77s-.54-.34-1.18-.34v8.02h-4.63v-17.8Zm4.62 3.05v3.96c.52 0 .89-.07 1.09-.21.21-.14.31-.61.31-1.39v-.98q0-.84-.3-1.11c-.2-.18-.57-.26-1.1-.26ZM108.67 446.55h7.72v3.56h-3.09v3.38h2.89v3.39h-2.89v3.91h3.4v3.56h-8.02v-17.8ZM122.65 446.55v14.24h2.81v3.56h-7.44v-17.8zM130.02 460.72v3.63h-3.35v-3.63z" class="st3"/></svg>