<?xml version="1.0" encoding="UTF-8"?>
<svg id="_레이어_1" data-name="레이어_1" xmlns="http://www.w3.org/2000/svg" version="1.1" viewBox="0 0 612 792">
  <!-- Generator: Adobe Illustrator 30.4.0, SVG Export Plug-In . SVG Version: 2.1.4 Build 226)  -->
  <defs>
    <style>
      .st0 {
        font-family: NanumGothicExtraBold, NanumGothic;
        font-size: 11px;
      }

      .st0, .st1 {
        fill: #231815;
      }

      .st2 {
        fill: #d3d3d4;
      }

      .st3 {
        fill: #929292;
      }

      .st4 {
        fill: #636262;
      }
    </style>
  </defs>
  <rect class="st4" x="38.81" y="254.47" width="522.26" height="347.59"/>
  <rect class="st2" x="51" y="271.93" width="497.87" height="312.68"/>
  <g>
    <polygon class="st3" points="109.75 555.2 109.66 555.15 102.24 566.14 102.24 555.12 96.59 555.12 96.59 555.2 96.5 555.15 87.31 568.76 81.85 560.68 95.31 540.74 83.12 540.74 75.75 551.66 68.36 540.74 56.17 540.74 69.66 560.68 56.17 580.66 68.36 580.66 75.76 569.7 79.02 574.51 83.43 574.51 91.21 574.51 91.25 574.51 96.59 566.6 96.59 574.51 102.24 574.51 104.41 574.51 109.75 566.6 109.75 574.51 115.4 574.51 115.4 555.12 109.75 555.12 109.75 555.2"/>
    <polygon class="st3" points="145.89 555.12 145.89 566.14 138.47 555.15 138.38 555.2 138.38 555.12 132.73 555.12 132.73 574.51 138.38 574.51 138.38 566.6 143.72 574.51 145.89 574.51 151.54 574.51 151.54 555.12 145.89 555.12"/>
    <polygon class="st3" points="131.44 574.51 131.44 570.21 122.33 570.21 122.33 566.98 131.44 566.98 131.44 562.68 122.33 562.68 122.33 559.45 131.44 559.45 131.44 555.15 122.33 555.15 122.33 555.12 116.68 555.12 116.68 574.51 116.71 574.51 122.33 574.51 131.44 574.51"/>
    <polygon class="st3" points="91.19 560.45 93.39 557.16 86.18 557.16 83.99 560.45 91.19 560.45"/>
    <polygon class="st3" points="124.73 575.84 124.7 575.83 121.44 580.66 123.4 580.66 124.73 578.68 124.73 580.66 126.14 580.66 126.14 575.82 124.73 575.82 124.73 575.84"/>
    <path class="st3" d="M132,575.84h-.02s-2.54,3.75-2.54,3.75h-1.47v-2.69h2.27v-1.07h-2.61c-.59,0-1.07.48-1.07,1.07v2.69c0,.59.48,1.07,1.07,1.07h2.61s.43,0,.43,0l1.33-1.97v1.98h1.41v-4.84h-1.41v.02Z"/>
    <path class="st3" d="M136.34,575.82h-2.61v4.84h2.61c.59,0,1.07-.48,1.07-1.07v-2.69c0-.59-.48-1.07-1.07-1.07ZM136.01,579.59h-.86v-2.69h.86v2.69Z"/>
    <polygon class="st3" points="139.16 576.89 141.43 576.89 141.43 575.82 139.16 575.82 137.75 575.82 137.75 575.82 137.75 580.66 137.75 580.66 139.16 580.66 141.43 580.66 141.43 579.59 139.16 579.59 139.16 578.78 141.43 578.78 141.43 577.71 139.16 577.71 139.16 576.89"/>
    <polygon class="st3" points="145.54 575.82 144.31 579.14 143.08 575.82 141.94 575.82 141.88 575.82 141.88 580.66 143.08 580.66 143.08 578.86 143.74 580.66 144.87 580.66 145.54 578.86 145.54 580.66 146.74 580.66 146.74 575.82 146.67 575.82 145.54 575.82"/>
    <polygon class="st3" points="149.19 577.31 148.3 575.81 146.83 575.81 148.6 578.8 148.6 580.66 149.77 580.66 149.77 578.8 151.54 575.81 150.07 575.81 149.19 577.31"/>
  </g>
  <rect class="st1" x="56.17" y="277.12" width="486.82" height="256.68"/>
  <circle class="st3" cx="514.38" cy="560.45" r="13.68"/>
  <circle class="st3" cx="472.36" cy="560.45" r="13.68"/>
  <circle class="st3" cx="432.37" cy="560.78" r="13.68"/>
  <rect class="st2" x="160.22" y="296.13" width="362.09" height="33.94" rx="3.75" ry="3.75"/>
  <g>
    <rect class="st2" x="73.52" y="296.13" width="79.53" height="33.94" rx="3.75" ry="3.75"/>
    <g>
      <path class="st4" d="M99.72,304.2v17.8h-4.06l-2.41-8.09v8.09h-3.87v-17.8h3.87l2.59,8.01v-8.01h3.87Z"/>
      <path class="st4" d="M109.58,304.2l2.65,17.8h-4.73l-.25-3.2h-1.66l-.28,3.2h-4.78l2.36-17.8h6.69ZM107.13,315.64c-.23-2.02-.47-4.51-.71-7.47-.47,3.41-.77,5.9-.89,7.47h1.59Z"/>
      <path class="st4" d="M127.29,304.2v17.8h-4.04v-12.01s-1.62,12.01-1.62,12.01h-2.87l-1.7-11.74v11.74h-4.05v-17.8h5.99c.18,1.07.36,2.33.55,3.78l.66,4.53,1.06-8.31h6.02Z"/>
      <path class="st4" d="M129.15,304.2h7.72v3.56h-3.09v3.37h2.89v3.39h-2.89v3.91h3.4v3.56h-8.02v-17.8Z"/>
    </g>
  </g>
  <rect class="st2" x="160.22" y="343.59" width="362.09" height="33.94" rx="3.75" ry="3.75"/>
  <g>
    <rect class="st2" x="73.52" y="343.59" width="79.53" height="33.94" rx="3.75" ry="3.75"/>
    <g>
      <path class="st4" d="M90.4,351.66h3.46c2.24,0,3.75.1,4.53.31s1.39.54,1.8,1.01c.41.47.67.99.77,1.57s.15,1.71.15,3.39v6.23c0,1.6-.08,2.67-.23,3.2-.15.54-.41.96-.79,1.26s-.84.52-1.39.64c-.55.12-1.38.18-2.48.18h-5.84v-17.8ZM95.02,354.7v11.71c.67,0,1.08-.13,1.23-.4s.23-1,.23-2.18v-6.91c0-.81-.03-1.32-.08-1.55s-.17-.39-.35-.5c-.18-.11-.53-.16-1.03-.16Z"/>
      <path class="st4" d="M112.16,351.66v3.56h-2.75v14.23h-4.63v-14.23h-2.74v-3.56h10.11Z"/>
      <path class="st4" d="M119.36,351.32l-5.26,18.48h-3.36l5.3-18.48h3.33Z"/>
      <path class="st4" d="M120.43,351.66h4.66c1.26,0,2.23.1,2.91.3s1.19.48,1.53.86c.34.37.57.83.69,1.36.12.53.18,1.35.18,2.47v1.55c0,1.14-.12,1.96-.35,2.48-.23.52-.67.92-1.29,1.2s-1.45.42-2.46.42h-1.24v7.17h-4.63v-17.8ZM125.05,354.7v4.53c.13,0,.25.01.34.01.43,0,.72-.1.89-.31.16-.21.25-.64.25-1.3v-1.46c0-.61-.1-1-.29-1.19-.19-.18-.59-.27-1.19-.27Z"/>
      <path class="st4" d="M136.17,351.66v17.8h-4.57v-17.8h4.57Z"/>
    </g>
  </g>
  <rect class="st2" x="160.22" y="391.05" width="362.09" height="33.94" rx="3.75" ry="3.75"/>
  <rect class="st2" x="160.22" y="438.48" width="362.09" height="67.88" rx="3.75" ry="3.75"/>
  <g>
    <rect class="st2" x="73.52" y="391.05" width="79.53" height="33.94" rx="3.75" ry="3.75"/>
    <g>
      <path class="st4" d="M93.3,404.51h-4.3v-1.32c0-.62-.05-1.01-.16-1.18-.11-.17-.29-.25-.55-.25-.28,0-.49.11-.63.34-.14.23-.21.57-.21,1.03,0,.59.08,1.04.24,1.34.15.3.59.66,1.31,1.09,2.06,1.22,3.36,2.23,3.89,3.01.53.78.8,2.05.8,3.79,0,1.27-.15,2.2-.44,2.8s-.87,1.1-1.72,1.51c-.85.41-1.84.61-2.97.61-1.24,0-2.3-.23-3.17-.7-.88-.47-1.45-1.07-1.72-1.79-.27-.73-.41-1.75-.41-3.09v-1.17h4.3v2.17c0,.67.06,1.1.18,1.29.12.19.34.29.64.29s.54-.12.69-.36.23-.6.23-1.08c0-1.05-.14-1.73-.43-2.06-.29-.32-1.02-.86-2.17-1.62-1.15-.76-1.91-1.32-2.29-1.66-.37-.34-.68-.82-.93-1.43-.25-.61-.37-1.38-.37-2.33,0-1.36.17-2.36.52-2.99.35-.63.91-1.12,1.69-1.48s1.71-.53,2.81-.53c1.2,0,2.23.19,3.07.58.85.39,1.41.88,1.68,1.47.27.59.41,1.59.41,3.01v.7Z"/>
      <path class="st4" d="M99.77,399.12v17.8h-4.63v-17.8h4.63Z"/>
      <path class="st4" d="M110.95,399.12v3.56h-2.75v14.24h-4.63v-14.24h-2.74v-3.56h10.11Z"/>
      <path class="st4" d="M112,399.12h3.28c2.18,0,3.66.08,4.44.25.77.17,1.4.6,1.89,1.29s.73,1.8.73,3.31c0,1.38-.17,2.32-.52,2.79-.34.48-1.02.76-2.03.86.92.23,1.53.53,1.85.91s.51.73.59,1.05c.08.32.12,1.2.12,2.63v4.69h-4.3v-5.91c0-.95-.08-1.54-.23-1.77-.15-.23-.54-.34-1.18-.34v8.02h-4.63v-17.8ZM116.63,402.16v3.96c.52,0,.89-.07,1.09-.21.21-.14.31-.61.31-1.39v-.98c0-.56-.1-.93-.3-1.11-.2-.18-.57-.26-1.1-.26Z"/>
      <path class="st4" d="M124.13,399.12h7.72v3.56h-3.09v3.38h2.89v3.39h-2.89v3.91h3.4v3.56h-8.02v-17.8Z"/>
      <path class="st4" d="M133.48,399.12h4.66c1.26,0,2.23.1,2.91.3.68.2,1.19.48,1.53.86.34.37.57.83.69,1.36.12.53.18,1.35.18,2.47v1.55c0,1.14-.12,1.96-.35,2.48-.23.52-.67.92-1.29,1.2s-1.45.42-2.46.42h-1.24v7.17h-4.63v-17.8ZM138.11,402.16v4.53c.13,0,.25.01.34.01.43,0,.72-.1.89-.31.16-.21.25-.64.25-1.3v-1.46c0-.61-.1-1-.29-1.19-.19-.18-.59-.28-1.19-.28Z"/>
    </g>
  </g>
  <g>
    <rect class="st2" x="73.52" y="438.48" width="79.53" height="33.94" rx="3.75" ry="3.75"/>
    <g>
      <path class="st4" d="M96.55,446.55h3.28c2.18,0,3.66.08,4.44.25.77.17,1.4.6,1.89,1.29s.73,1.8.73,3.31c0,1.38-.17,2.32-.52,2.79-.34.48-1.02.76-2.03.86.92.23,1.53.53,1.85.91s.51.73.59,1.05c.08.32.12,1.2.12,2.63v4.69h-4.3v-5.91c0-.95-.08-1.54-.23-1.77-.15-.23-.54-.34-1.18-.34v8.02h-4.63v-17.8ZM101.17,449.6v3.96c.52,0,.89-.07,1.09-.21.21-.14.31-.61.31-1.39v-.98c0-.56-.1-.93-.3-1.11-.2-.18-.57-.26-1.1-.26Z"/>
      <path class="st4" d="M108.67,446.55h7.72v3.56h-3.09v3.38h2.89v3.39h-2.89v3.91h3.4v3.56h-8.02v-17.8Z"/>
      <path class="st4" d="M122.65,446.55v14.24h2.81v3.56h-7.44v-17.8h4.63Z"/>
      <path class="st4" d="M130.02,460.72v3.63h-3.35v-3.63h3.35Z"/>
    </g>
  </g>
<text class="st0" transform="translate(170.19 318.44)">
  <tspan x="0" y="0">${n}</tspan>
</text>

<text class="st0" transform="translate(170.12 365.39)">
  <tspan x="0" y="0">${d}</tspan>
</text>

<text class="st0" transform="translate(170.12 412.49)">
  <tspan x="0" y="0">${s}</tspan>
</text>

<text class="st0" transform="translate(170.4 462.04)">
  <tspan x="0" y="0">${r1}</tspan>
</text>

<text class="st0" transform="translate(323.07 462.04)">
  <tspan x="0" y="0">${r2}</tspan>
</text>

<text class="st0" transform="translate(170.4 491.53)">
  <tspan x="0" y="0">${r3}</tspan>
</text>

<text class="st0" transform="translate(323.07 491.53)">
  <tspan x="0" y="0">${r4}</tspan>
</text>
</svg>